<svg width="79" height="60" viewBox="0 0 79 60" fill="none" xmlns="http://www.w3.org/2000/svg">
<g clip-path="url(#clip0_5_34)">
<path d="M36.3947 29.724C37.2483 29.7542 38.0801 29.4487 38.7154 28.8718C38.8987 28.5235 39.148 28.5679 39.148 28.5679C39.379 28.6605 39.401 29.2163 39.401 29.2163C39.4487 29.635 39.698 29.5535 39.698 29.5535C39.7896 29.5535 39.8153 29.3349 39.8153 29.3349V26.3003C39.676 25.7185 40.4716 25.4666 40.4716 25.4666C40.7209 25.4666 40.7759 25.3258 40.7759 25.3258C40.7783 25.2992 40.7737 25.2725 40.7627 25.2482C40.7517 25.224 40.7345 25.2032 40.7129 25.1878C40.6914 25.1724 40.6662 25.163 40.6399 25.1605C40.6136 25.1581 40.5872 25.1627 40.5632 25.1739H37.3846C37.3606 25.1627 37.3342 25.1581 37.3079 25.1605C37.2816 25.163 37.2564 25.1724 37.2349 25.1878C37.2133 25.2032 37.1961 25.224 37.1851 25.2482C37.1741 25.2725 37.1695 25.2992 37.172 25.3258C37.172 25.3258 37.2233 25.4666 37.4762 25.4666C37.8192 25.5281 38.1293 25.7111 38.351 25.9827C38.5727 26.2542 38.6915 26.5967 38.6861 26.9487C38.7961 29.5795 36.512 29.3942 36.512 29.3942C33.8247 29.4868 33.9127 24.7885 33.9127 24.7885C33.843 20.1791 36.7063 20.52 36.7063 20.52C39.2287 20.6349 39.368 23.3768 39.368 23.3768C39.434 23.9548 39.709 23.4472 39.709 23.4472V20.4829C39.709 20.0013 39.412 20.3199 39.412 20.3199L39.1627 20.7683C38.9574 21.2018 38.6898 20.8942 38.6898 20.8942C38.0163 20.363 37.1689 20.1088 36.3177 20.1828C36.3177 20.1828 32.6515 20.105 32.4205 24.6292C32.4095 24.6069 32.2885 29.3979 36.3947 29.724Z" fill="white"/>
<path d="M22.716 29.472C22.716 29.3793 22.7453 29.2385 22.9799 29.2719C22.9799 29.2719 24.0248 29.4572 24.0798 27.5267V21.8983C24.0798 20.9016 22.9579 20.6274 22.9579 20.6274H22.7746C22.7343 20.6187 22.6979 20.597 22.6708 20.5656C22.6437 20.5342 22.6274 20.4948 22.6243 20.4533C22.6243 20.4533 22.606 20.3051 22.8296 20.3088H24.6004C24.6004 20.3088 24.8461 20.2421 25.1027 20.6793L29.7661 27.3118V22.9358V21.8946C29.7818 21.597 29.6884 21.3039 29.5038 21.0715C29.3191 20.8391 29.0562 20.6836 28.7653 20.6348C28.6552 20.6153 28.5433 20.6079 28.4316 20.6126C28.4316 20.6126 28.2703 20.5533 28.263 20.4384C28.263 20.4384 28.2373 20.3199 28.45 20.3236H31.4306C31.6396 20.3236 31.6139 20.4384 31.6139 20.4384C31.6139 20.5533 31.4453 20.6126 31.4453 20.6126C31.3336 20.6079 31.2217 20.6153 31.1116 20.6348C30.8207 20.6836 30.5578 20.8391 30.3731 21.0715C30.1885 21.3039 30.0951 21.597 30.1108 21.8946V29.4572C30.1108 29.4572 30.0851 29.5943 29.9898 29.572C29.8945 29.5498 29.9898 29.572 29.9898 29.572H29.8798C29.8798 29.572 29.8798 29.7388 29.5425 29.2237L24.3804 21.7983V27.5267C24.4281 29.4572 25.4803 29.2719 25.4803 29.2719C25.7186 29.2385 25.7516 29.3793 25.7443 29.472V29.5535H22.7306L22.716 29.472Z" fill="white"/>
<path d="M14.0086 27.1895L16.575 20.6385L16.8023 20.042H17.5942L19.728 25.5629L20.4429 27.4378L20.6739 27.9825L20.7582 28.2011C20.7582 28.2011 21.1945 29.2312 22.0194 29.2682C22.0194 29.2682 22.408 29.22 22.408 29.4312V29.4979C22.3942 29.5172 22.3745 29.5312 22.3519 29.5379C22.3294 29.5446 22.3052 29.5436 22.2833 29.535C22.1917 29.509 22.2833 29.535 22.2833 29.535H18.2505C18.2505 29.535 18.0928 29.5572 18.2175 29.3942C18.2175 29.3942 18.2175 29.283 18.3715 29.2645C18.6261 29.2419 18.8745 29.1728 19.1047 29.0607C19.1047 29.0607 19.5593 28.7902 19.2844 28.101L19.1964 27.8861L18.9654 27.3452L18.3531 25.9001L16.6043 21.3463L14.9362 25.4221L14.2763 27.2747L14.06 27.8083L13.9207 28.1788C13.9207 28.1788 13.6567 28.8384 14.2176 29.0718C14.4167 29.1519 14.6248 29.2067 14.8372 29.2349C14.8665 29.2298 14.8965 29.2315 14.925 29.2397C14.9535 29.248 14.9798 29.2626 15.002 29.2826C15.0242 29.3025 15.0416 29.3272 15.0531 29.3548C15.0645 29.3825 15.0697 29.4124 15.0682 29.4424C15.0682 29.4424 15.1232 29.5239 14.9399 29.5016H12.0545C12.0545 29.5016 11.9152 29.5943 11.9739 29.3016C12.0618 29.2544 12.1604 29.2314 12.2599 29.2349C12.2599 29.2349 13.2204 29.3164 13.7263 27.9009L13.8033 27.7009L14.0086 27.1895Z" fill="white"/>
<path d="M14.6943 26.2002L14.9033 25.6482H18.3385L18.1332 25.3999H14.8336L14.6943 26.2002Z" fill="white"/>
<path d="M42.1727 20.3051H48.9112C48.9112 20.3051 49.1642 20.2606 49.1642 20.5644V23.4286C49.1622 23.4747 49.1453 23.5188 49.1162 23.5542C49.0871 23.5897 49.0473 23.6146 49.0029 23.625C49.0029 23.625 48.8892 23.6584 48.8892 23.3582C48.8892 23.3582 48.6363 20.2606 45.3366 20.7015C45.1963 20.6916 45.0554 20.7132 44.9243 20.765C44.7932 20.8168 44.6752 20.8973 44.5787 21.0009C44.4822 21.1044 44.4097 21.2284 44.3664 21.3637C44.3231 21.4991 44.3102 21.6425 44.3284 21.7835V24.6329H44.8564C44.8564 24.6329 46.4695 24.6996 46.3779 23.1026C46.3722 23.0779 46.3726 23.0522 46.3791 23.0277C46.3855 23.0033 46.3977 22.9808 46.4147 22.9621C46.4316 22.9435 46.4529 22.9294 46.4765 22.9209C46.5001 22.9125 46.5254 22.9099 46.5502 22.9136C46.5502 22.9136 46.6675 22.9655 46.6675 23.2434V26.3225C46.6675 26.3225 46.6675 26.53 46.5282 26.5152C46.4647 26.4796 46.4141 26.4245 46.3838 26.3578C46.3535 26.2912 46.345 26.2165 46.3595 26.1446C46.3595 26.1446 46.5282 24.5847 44.3284 24.9108V28.6161C44.3284 28.6161 44.2808 29.2163 45.1753 29.1719C45.1753 29.1719 48.7279 29.6832 49.0725 26.304C49.0725 26.304 49.0725 26.0705 49.1862 26.0631C49.2528 26.0865 49.3094 26.1325 49.3462 26.1933C49.3829 26.2542 49.3977 26.326 49.3878 26.3966V29.2756C49.3878 29.2756 49.3878 29.5906 48.9112 29.5461H42.081C42.081 29.5461 41.9234 29.5869 41.9087 29.3831C41.9087 29.3831 41.8207 29.2349 42.1507 29.1793C42.1507 29.1793 43.0892 29.5091 43.1699 28.253V21.387C43.1823 21.2795 43.1705 21.1706 43.1352 21.0684C43.0999 20.9662 43.0422 20.8735 42.9663 20.7971C42.8904 20.7208 42.7983 20.6628 42.6971 20.6277C42.5958 20.5925 42.488 20.581 42.3817 20.5941C42.3817 20.5941 42.015 20.6163 41.9747 20.4607C41.9866 20.4166 42.0123 20.3776 42.048 20.3495C42.0837 20.3215 42.1275 20.3059 42.1727 20.3051Z" fill="white"/>
<path d="M52.8781 29.5424H57.7432C57.7432 29.5424 58.0511 29.5868 58.0071 28.9644V26.2298C58.0071 26.2298 57.7872 25.9519 57.7432 26.3225C57.7432 26.3225 57.5818 29.3608 54.5352 29.2867C54.5352 29.2867 53.4353 29.3497 53.4353 28.3752V21.3648C53.3657 20.6015 54.5719 20.5941 54.5719 20.5941C54.7332 20.5941 54.7295 20.4607 54.7295 20.4607C54.7515 20.331 54.5719 20.3051 54.5719 20.3051H51.0413C51.0413 20.3051 50.8066 20.331 50.924 20.4607C50.924 20.4607 50.924 20.5941 51.2209 20.5941C51.2209 20.5941 52.1998 20.6459 52.2035 21.3351V28.3307C52.2035 28.3307 52.2988 29.309 51.1293 29.2645C51.1106 29.2619 51.0916 29.2633 51.0734 29.2685C51.0553 29.2738 51.0385 29.2828 51.024 29.295C51.0095 29.3072 50.9977 29.3223 50.9893 29.3394C50.9809 29.3565 50.9761 29.3751 50.9753 29.3942C51.0057 29.4436 51.0495 29.4831 51.1015 29.508C51.1535 29.533 51.2115 29.5423 51.2686 29.535H52.8964L52.8781 29.5424Z" fill="white"/>
<path d="M58.8687 24.8404C58.8733 23.9126 59.1267 23.0034 59.6019 22.2096C59.9864 21.5291 60.5551 20.9736 61.2411 20.6084C61.9272 20.2433 62.7021 20.0836 63.4749 20.1482C64.2476 20.2128 64.986 20.499 65.6034 20.9731C66.2208 21.4472 66.6914 22.0896 66.9601 22.8247C67.1844 23.33 67.3232 23.8699 67.3707 24.4217C67.3707 24.4217 67.6016 25.4406 66.9124 27.1562C66.9124 27.1562 66.2048 28.5123 65.1489 29.1237C64.3592 29.5827 63.4419 29.7663 62.5386 29.6461C61.9521 29.5356 61.3938 29.3063 60.8973 28.972C60.4008 28.6377 59.9764 28.2053 59.6496 27.7009C59.2988 27.0854 59.0511 26.4156 58.9164 25.7185C58.8635 25.363 58.8438 25.0032 58.8577 24.644H60.2325V25.1183C60.2325 25.1183 60.2655 27.3414 60.8631 28.1529C61.0932 28.5447 61.4276 28.8633 61.8282 29.0723C62.2289 29.2813 62.6795 29.3723 63.1288 29.3349C63.8322 29.3225 64.5045 29.0404 65.0096 28.5457C65.0096 28.5457 65.7869 27.875 65.9262 25.3739C65.9262 25.3739 65.8932 23.8659 65.8932 23.8325C65.8932 23.7992 65.7759 21.9799 65.0793 21.3203C64.8379 21.0367 64.5359 20.8123 64.1961 20.664C63.8563 20.5158 63.4876 20.4475 63.1178 20.4644C63.1178 20.4644 61.8933 20.4644 61.2517 21.2388C61.0067 21.474 60.8185 21.7631 60.7018 22.0836C60.5232 22.5585 60.381 23.0466 60.2765 23.5435L60.2179 24.6551L58.8687 24.8404Z" fill="white"/>
<path d="M79.0073 40.0692V39.958C79.0073 39.8505 78.7874 39.8061 78.7874 39.8061C77.5115 39.8061 77.6032 38.9872 77.6032 38.9872V31.9064C77.6032 31.9064 77.5115 31.0912 78.7874 31.0912C78.7874 31.0912 79 31.0467 79.0073 30.9393V30.8281H74.9268V30.9393C74.9268 31.0467 75.1431 31.0912 75.1431 31.0912C76.419 31.0912 76.3273 31.9064 76.3273 31.9064V38.9798C76.3273 38.9798 76.419 39.7987 75.1431 39.7987C75.1431 39.7987 74.9342 39.8431 74.9268 39.9506V40.0617H79.0073V40.0692Z" fill="white"/>
<path d="M66.7841 40.0655H68.3753V39.9803C68.3753 39.8839 68.3423 39.7468 68.0893 39.7802C68.0893 39.7802 66.9894 39.9654 66.9271 38.035V32.3103L72.4631 39.7024C72.8297 40.2174 72.8297 40.0544 72.8297 40.0544H72.9287C72.8261 40.0544 72.9287 40.0544 72.9287 40.0544C73.0314 40.0544 73.057 39.9358 73.057 39.9358V32.3844C73.0459 32.0772 73.15 31.777 73.3485 31.5441C73.547 31.3112 73.8253 31.1626 74.1276 31.1283C74.2488 31.1085 74.3716 31.101 74.4942 31.1061C74.4942 31.1061 74.6702 31.0468 74.6739 30.9319C74.6739 30.9319 74.6995 30.8096 74.4759 30.817H71.2863C71.0626 30.817 71.0883 30.9319 71.0883 30.9319C71.0883 31.0468 71.2716 31.1061 71.2716 31.1061C71.3942 31.1007 71.5171 31.1081 71.6382 31.1283C71.9412 31.1618 72.2203 31.3099 72.4196 31.5429C72.6189 31.776 72.7235 32.0766 72.7124 32.3844V37.8275L67.7264 31.195C67.4477 30.7466 67.1837 30.8244 67.1837 30.8244H65.292C65.05 30.8244 65.072 30.969 65.072 30.969C65.076 31.0113 65.0936 31.0512 65.122 31.0826C65.1505 31.114 65.1882 31.1353 65.2296 31.1431H65.4276C65.4276 31.1431 66.6265 31.4173 66.6265 32.414V38.0424C66.5422 39.9803 65.4423 39.7839 65.4423 39.7839C65.1893 39.7505 65.1527 39.8876 65.16 39.984V40.0655H66.7841Z" fill="white"/>
<path d="M64.83 40.0692V39.958C64.83 39.8505 64.6101 39.8061 64.6101 39.8061C63.3342 39.8061 63.4259 38.9872 63.4259 38.9872V31.9064C63.4259 31.9064 63.3342 31.0912 64.6101 31.0912C64.6101 31.0912 64.8227 31.0467 64.83 30.9393V30.8281H60.7532V30.9393C60.7532 31.0467 60.9731 31.0912 60.9731 31.0912C62.249 31.0912 62.1573 31.9064 62.1573 31.9064V38.9798C62.1573 38.9798 62.249 39.7987 60.9731 39.7987C60.9731 39.7987 60.7605 39.8431 60.7532 39.9506V40.0617H64.83V40.0692Z" fill="white"/>
<path d="M54.7112 40.0655H59.9099C59.9099 40.0655 60.2399 40.1099 60.1922 39.4837V36.7529C60.1922 36.7529 59.9576 36.475 59.9099 36.8455C59.8838 37.2703 59.7734 37.6854 59.5854 38.0663C59.3974 38.4471 59.1355 38.7858 58.8154 39.0623C58.4953 39.3388 58.1235 39.5475 57.722 39.6759C57.3205 39.8043 56.8976 39.8498 56.4783 39.8098C56.4783 39.8098 55.3051 39.8691 55.2868 38.8983V31.8878C55.2135 31.1245 56.504 31.1171 56.504 31.1171C56.6763 31.1171 56.6727 30.9837 56.6727 30.9837C56.6983 30.8541 56.504 30.8281 56.504 30.8281H52.7278C52.7278 30.8281 52.4785 30.8541 52.6031 30.9837C52.6031 30.9837 52.6031 31.1171 52.9221 31.1171C52.9221 31.1171 53.967 31.169 53.9706 31.8582V38.8686C53.9706 38.8686 54.0733 39.8468 52.8231 39.8024C52.8035 39.7992 52.7836 39.8002 52.7644 39.805C52.7452 39.8099 52.7271 39.8187 52.7114 39.8308C52.6956 39.8429 52.6824 39.8582 52.6727 39.8756C52.6629 39.893 52.6567 39.9122 52.6545 39.9321C52.6894 39.9823 52.7372 40.022 52.7927 40.0468C52.8483 40.0716 52.9095 40.0806 52.9698 40.0729H54.7112V40.0655Z" fill="white"/>
<path d="M46.5098 40.0655H51.7085C51.7085 40.0655 52.0385 40.1099 51.9908 39.4837V36.7529C51.9908 36.7529 51.7598 36.475 51.7085 36.8455C51.6824 37.2703 51.572 37.6854 51.384 38.0663C51.196 38.4471 50.9341 38.7858 50.614 39.0623C50.2939 39.3388 49.9221 39.5475 49.5206 39.6759C49.1191 39.8043 48.6962 39.8498 48.2769 39.8098C48.2769 39.8098 47.1037 39.8691 47.0854 38.8983V31.8878C47.0121 31.1245 48.3026 31.1171 48.3026 31.1171C48.4749 31.1171 48.4712 30.9837 48.4712 30.9837C48.4969 30.8541 48.3026 30.8281 48.3026 30.8281H44.5447C44.5447 30.8281 44.2954 30.8541 44.42 30.9837C44.42 30.9837 44.42 31.1171 44.739 31.1171C44.739 31.1171 45.7839 31.169 45.7875 31.8582V38.8686C45.7875 38.8686 45.8902 39.8468 44.64 39.8024C44.6205 39.7992 44.6005 39.8002 44.5813 39.805C44.5621 39.8099 44.544 39.8187 44.5283 39.8308C44.5125 39.8429 44.4994 39.8582 44.4896 39.8756C44.4798 39.893 44.4736 39.9122 44.4714 39.9321C44.5062 39.9823 44.5541 40.022 44.6096 40.0468C44.6652 40.0716 44.7264 40.0806 44.7867 40.0729H46.5281L46.5098 40.0655Z" fill="white"/>
<path d="M35.9291 30.8355H42.6677C42.6677 30.8355 42.917 30.7911 42.9207 31.0912V33.9554C42.9177 34.0016 42.9006 34.0456 42.8717 34.0815C42.8427 34.1174 42.8035 34.1432 42.7593 34.1555C42.7593 34.1555 42.6457 34.1851 42.6457 33.885C42.6457 33.885 42.3927 30.7873 39.0894 31.2283C38.949 31.2183 38.8082 31.24 38.6771 31.2917C38.546 31.3435 38.428 31.4241 38.3315 31.5276C38.235 31.6312 38.1625 31.7551 38.1192 31.8905C38.0759 32.0258 38.0629 32.1692 38.0812 32.3102V35.1633H38.6092C38.6092 35.1633 40.226 35.2337 40.1343 33.633C40.1287 33.6083 40.1291 33.5827 40.1355 33.5582C40.1419 33.5337 40.1541 33.5112 40.1711 33.4926C40.1881 33.474 40.2093 33.4598 40.2329 33.4513C40.2565 33.4429 40.2818 33.4404 40.3066 33.444C40.3066 33.444 40.4203 33.4959 40.4203 33.7738V36.8529C40.4203 36.8529 40.4203 37.0604 40.2846 37.0493C40.2212 37.0137 40.1706 36.9586 40.1402 36.892C40.1099 36.8253 40.1014 36.7506 40.116 36.6788C40.116 36.6788 40.2846 35.1225 38.0812 35.4449V39.1502C38.0812 39.1502 38.0372 39.7505 38.9318 39.706C38.9318 39.706 42.4844 40.2211 42.829 36.8381C42.829 36.8381 42.829 36.6047 42.9426 36.5973C43.0094 36.6201 43.066 36.6661 43.1023 36.7272C43.1386 36.7883 43.1522 36.8605 43.1406 36.9307V39.8098C43.1406 39.8098 43.1406 40.1284 42.6677 40.0803H35.8375C35.8375 40.0803 35.6762 40.121 35.6615 39.9172C35.6615 39.9172 35.5735 39.769 35.9071 39.7134C35.9071 39.7134 36.8457 40.0432 36.9263 38.7871V31.9175C36.9347 31.8104 36.9199 31.7027 36.883 31.602C36.8461 31.5013 36.788 31.4099 36.7126 31.3341C36.6373 31.2583 36.5466 31.2 36.4468 31.1632C36.3469 31.1264 36.2404 31.1119 36.1344 31.1208C36.1344 31.1208 35.7678 31.1468 35.7275 30.9911C35.7401 30.9467 35.7665 30.9076 35.8028 30.8796C35.8391 30.8516 35.8834 30.8361 35.9291 30.8355Z" fill="white"/>
<path d="M18.7528 40.0654C18.7528 40.0654 18.5364 40.0654 18.7528 39.8505C18.8926 39.7998 19.0405 39.776 19.189 39.7801C19.189 39.7801 20.0359 39.6764 20.0799 39.0391V31.9175C20.0799 31.9175 20.1166 31.3024 19.211 31.0949C19.211 31.0949 18.7674 31.0949 18.7711 30.9207C18.7711 30.9207 18.7711 30.791 19.0827 30.8059H22.8663C23.6059 30.8342 24.3368 30.9779 25.033 31.232C25.4266 31.4045 25.7809 31.6567 26.0742 31.973C26.0742 31.973 26.9798 32.7845 26.4408 34.2555C26.4408 34.2555 26.0742 35.33 24.2631 35.7376C24.2631 35.7376 23.6325 35.934 21.9167 35.8525V35.5524C21.9167 35.5524 23.4162 35.6228 23.9075 35.3782C24.1917 35.2915 24.4524 35.1398 24.6692 34.9348C24.886 34.7298 25.0531 34.4771 25.1577 34.1962C25.1577 34.1962 25.6856 32.9253 24.8937 31.973C24.8937 31.973 24.2301 31.0134 22.4776 31.0949C22.4776 31.0949 21.1688 31.0245 21.2861 32.0434V35.4708V35.5598L21.3265 35.8599V39.0946C21.3265 39.0946 21.4364 39.769 22.3787 39.7801C22.3787 39.7801 22.7196 39.7801 22.7453 39.9987C22.7453 39.9987 22.6756 40.058 22.639 40.0543L18.7528 40.0654Z" fill="white"/>
<path d="M9.71553 37.7052L12.2819 31.1542L12.5092 30.5577H13.3011L15.4349 36.0786L16.1681 37.9535L16.3991 38.4981L16.4834 38.7168C16.4834 38.7168 16.9197 39.7468 17.7446 39.7839C17.7446 39.7839 18.1332 39.7357 18.1332 39.9469V40.0136C18.1194 40.0328 18.0997 40.0469 18.0771 40.0536C18.0546 40.0603 18.0304 40.0593 18.0085 40.0507C17.9169 40.0247 18.0085 40.0507 18.0085 40.0507H13.9757C13.9757 40.0507 13.818 40.0729 13.9427 39.9099C13.9427 39.9099 13.9427 39.7987 14.0967 39.7802C14.3513 39.7576 14.5997 39.6885 14.8299 39.5764C14.8299 39.5764 15.2845 39.3059 15.0096 38.6167L14.9216 38.4018L14.6906 37.8571L14.0857 36.4232L12.3369 31.8731L10.6687 35.9489L10.0088 37.783L9.79252 38.3203L9.6532 38.6908C9.6532 38.6908 9.38923 39.3504 9.95016 39.5838C10.1492 39.6639 10.3573 39.7186 10.5698 39.7468C10.599 39.7418 10.629 39.7435 10.6575 39.7517C10.686 39.76 10.7124 39.7746 10.7345 39.7945C10.7567 39.8144 10.7742 39.8392 10.7856 39.8668C10.7971 39.8945 10.8023 39.9244 10.8007 39.9543C10.8007 39.9543 10.8557 40.0358 10.6724 40.0136H7.78709C7.78709 40.0136 7.64777 40.1062 7.70643 39.8135C7.79433 39.7664 7.89294 39.7434 7.9924 39.7468C7.9924 39.7468 8.95295 39.8283 9.45889 38.4129L9.53588 38.2128L9.71553 37.7052Z" fill="white"/>
<path d="M35.0419 33.4552C35.0419 30.817 31.3243 30.8022 31.3243 30.8022H27.4491C27.3963 30.7928 27.3419 30.7989 27.2925 30.82C27.2431 30.841 27.2007 30.876 27.1705 30.9208C27.1705 30.9208 27.1265 31.0949 27.4491 31.0727C27.4491 31.0727 28.4756 31.1505 28.4756 31.8916V38.9835C28.4756 38.9835 28.5673 39.8024 27.2914 39.8024C27.2914 39.8024 27.0788 39.8469 27.0715 39.9543V40.0655H31.1447V39.958C31.1447 39.8506 30.9247 39.8061 30.9247 39.8061C29.6525 39.8061 29.7442 38.9872 29.7442 38.9872V35.8711H31.2583C35.1152 35.8711 35.0419 33.4552 35.0419 33.4552ZM33.5754 34.1963C33.5398 34.3017 33.4944 34.4034 33.4397 34.5001L33.4067 34.552C33.3893 34.5842 33.3697 34.6152 33.3481 34.6446C33.3151 34.6928 33.2747 34.741 33.2344 34.7891L33.1647 34.8669L33.0988 34.9299C32.8769 35.1354 32.6127 35.2886 32.3252 35.3783C32.2564 35.4118 32.1837 35.4367 32.1089 35.4524L31.9366 35.4894C31.6793 35.5293 31.4196 35.5516 31.1593 35.5561H30.701C30.4811 35.5561 30.3344 35.5561 30.3344 35.5561H29.7112V31.8286C29.7104 31.8138 29.7104 31.7989 29.7112 31.7841C29.7112 31.7841 29.7112 31.7545 29.7112 31.7434C29.7319 31.6636 29.7666 31.5883 29.8138 31.521C29.9678 31.321 30.3271 31.106 31.163 31.1505C31.5931 31.1537 32.0191 31.2353 32.4205 31.3914C32.7643 31.5199 33.068 31.7385 33.3004 32.025C33.3463 32.0784 33.388 32.1354 33.4251 32.1954L33.4434 32.2213C33.4727 32.2658 33.4984 32.314 33.524 32.3584C33.6633 32.6549 33.7359 32.9788 33.7367 33.307C33.7302 33.6109 33.6732 33.9115 33.568 34.1963H33.5754Z" fill="white"/>
<path d="M31.149 40.0654H31.1447V40.0698L31.149 40.0654Z" fill="white"/>
<path d="M29.6378 35.5783H30.4297V35.8673H29.6488L29.6378 35.5783Z" fill="white"/>
<path d="M66.3405 18.2523H49.7472C49.7472 18.2523 31.3243 18.8081 31.3243 0.370544H48.3833C48.3833 18.8081 29.9605 18.2523 29.9605 18.2523H13.3818" stroke="white" stroke-width="2"/>
<path d="M31.2986 0.370544C31.2986 16.8443 16.586 18.156 13.4551 18.2449" stroke="white" stroke-width="2"/>
<path d="M48.3173 0.370544C48.3173 16.8443 63.0298 18.156 66.1608 18.2449" stroke="white" stroke-width="2"/>
<path d="M66.3405 41.7476H49.7472C49.7472 41.7476 31.3243 41.1918 31.3243 59.6294H48.3833C48.3833 41.1918 29.9605 41.7476 29.9605 41.7476H13.3818" stroke="white" stroke-width="2"/>
<path d="M31.2986 59.6183C31.2986 43.1408 16.586 41.8329 13.4551 41.7402" stroke="white" stroke-width="2"/>
<path d="M48.3173 59.6183C48.3173 43.1408 63.0298 41.8329 66.1608 41.7402" stroke="white" stroke-width="2"/>
<path d="M10.4011 36.7159L10.6101 36.1638H14.0454L13.84 35.9155H10.5404L10.4011 36.7159Z" fill="white"/>
<path d="M7.3618 36.6121C7.3618 40.2915 4.38115 40.2396 4.38115 40.2396H4.27483C1.91378 40.2396 0 38.1017 0 35.4672C0 32.8327 1.91378 30.691 4.27483 30.691C4.27483 30.691 5.41869 30.7985 6.01262 31.3543C6.01262 31.3543 6.65788 31.999 6.91085 31.0727C6.90273 31.0394 6.90247 31.0046 6.91012 30.9711C6.91778 30.9377 6.93311 30.9065 6.95489 30.8802C6.97667 30.8539 7.00427 30.8331 7.03547 30.8195C7.06668 30.806 7.1006 30.8 7.13449 30.8022C7.13449 30.8022 7.29214 30.8393 7.29214 31.2098V33.8517C7.29214 33.8517 7.29214 34.1963 7.10883 34.1777C7.10883 34.1777 6.86686 34.2444 6.82286 33.7331C6.77887 33.2218 6.82286 33.6886 6.82286 33.6886C6.82286 33.6886 6.41591 31.1394 4.2565 31.0245C2.09709 30.9097 1.6718 33.2848 1.6718 33.2848C1.07787 34.8521 1.62414 37.6459 1.62414 37.6459C1.62414 37.6459 2.03842 40.0581 4.42148 39.895C4.99716 39.8757 5.54898 39.6579 5.98518 39.2777C6.42138 38.8975 6.7157 38.3779 6.8192 37.8052L6.83752 37.7385C6.9301 37.3732 6.99748 37.0017 7.03917 36.6269L7.3618 36.6121Z" fill="white"/>
<path d="M21.2275 35.5783H22.0194V35.8673H21.2385L21.2275 35.5783Z" fill="white"/>
</g>
<defs>
<clipPath id="clip0_5_34">
<rect width="79" height="60" fill="white"/>
</clipPath>
</defs>
</svg>
