<svg width="9" height="15" viewBox="0 0 9 15" fill="none" xmlns="http://www.w3.org/2000/svg">
<g clip-path="url(#clip0_1_140)">
<path d="M6.82862 13.8346L0.389701 7.5456C0.336973 7.49459 0.295045 7.4335 0.26641 7.36596C0.237775 7.29842 0.223018 7.22581 0.223018 7.15245C0.223018 7.07909 0.237775 7.00648 0.26641 6.93894C0.295045 6.8714 0.336974 6.8103 0.389701 6.7593C0.497539 6.65474 0.641842 6.59627 0.792045 6.59627C0.942247 6.59627 1.08655 6.65474 1.19439 6.7593L7.6333 13.0483C7.68603 13.0993 7.72796 13.1604 7.75659 13.2279C7.78523 13.2955 7.79999 13.3681 7.79999 13.4415C7.79999 13.5148 7.78523 13.5874 7.75659 13.655C7.72796 13.7225 7.68603 13.7836 7.6333 13.8346C7.52547 13.9392 7.38116 13.9976 7.23096 13.9976C7.08076 13.9976 6.93645 13.9392 6.82862 13.8346Z" fill="#454A53"/>
<path d="M7.63335 1.2622L1.19444 7.5512C1.0866 7.65576 0.942295 7.71423 0.792093 7.71423C0.641891 7.71423 0.497587 7.65576 0.389749 7.5512C0.337022 7.5002 0.295093 7.43911 0.266458 7.37156C0.237822 7.30402 0.223066 7.23141 0.223066 7.15805C0.223066 7.08469 0.237823 7.01208 0.266458 6.94454C0.295093 6.877 0.337022 6.81591 0.389749 6.7649L6.82866 0.475893C6.93668 0.371526 7.08109 0.313309 7.23129 0.313573C7.3815 0.313837 7.5257 0.372562 7.63335 0.477307C7.68586 0.528291 7.7276 0.589296 7.75611 0.656706C7.78462 0.724116 7.7993 0.796561 7.7993 0.869751C7.7993 0.942941 7.78462 1.01539 7.75611 1.0828C7.7276 1.15021 7.68586 1.21121 7.63335 1.2622Z" fill="#454A53"/>
</g>
<defs>
<clipPath id="clip0_1_140">
<rect width="8.026" height="14.312" fill="white"/>
</clipPath>
</defs>
</svg>
