<svg width="9" height="15" viewBox="0 0 9 15" fill="none" xmlns="http://www.w3.org/2000/svg">
<g clip-path="url(#clip0_1_144)">
<path d="M1.19739 0.477404L7.6363 6.76641C7.68903 6.81742 7.73095 6.87851 7.75959 6.94605C7.78823 7.01359 7.80298 7.0862 7.80298 7.15956C7.80298 7.23292 7.78823 7.30553 7.75959 7.37308C7.73096 7.44062 7.68903 7.50171 7.6363 7.55271C7.52846 7.65727 7.38416 7.71574 7.23396 7.71574C7.08375 7.71574 6.93945 7.65727 6.83161 7.55271L0.392698 1.26371C0.339971 1.2127 0.298042 1.15161 0.269407 1.08407C0.240772 1.01653 0.226015 0.943916 0.226015 0.870555C0.226015 0.797194 0.240772 0.724583 0.269407 0.657042C0.298042 0.589501 0.339971 0.52841 0.392698 0.477404C0.500536 0.372848 0.644839 0.314378 0.795042 0.314378C0.945244 0.314378 1.08955 0.372848 1.19739 0.477404V0.477404Z" fill="#454A53"/>
<path d="M0.39265 13.0498L6.83157 6.76081C6.9394 6.65625 7.08371 6.59778 7.23391 6.59778C7.38411 6.59778 7.52841 6.65625 7.63625 6.76081C7.68898 6.81182 7.73091 6.87291 7.75954 6.94045C7.78818 7.00799 7.80294 7.0806 7.80294 7.15396C7.80294 7.22732 7.78818 7.29993 7.75954 7.36747C7.73091 7.43502 7.68898 7.49611 7.63625 7.54711L1.19734 13.8361C1.08932 13.9405 0.94491 13.9987 0.794708 13.9984C0.644505 13.9982 0.500304 13.9395 0.39265 13.8347C0.34014 13.7837 0.298396 13.7227 0.269891 13.6553C0.241385 13.5879 0.226697 13.5155 0.226697 13.4423C0.226697 13.3691 0.241385 13.2966 0.269891 13.2292C0.298397 13.1618 0.340141 13.1008 0.39265 13.0498V13.0498Z" fill="#454A53"/>
</g>
<defs>
<clipPath id="clip0_1_144">
<rect width="8.026" height="14.312" fill="white" transform="translate(8.026 14.312) rotate(-180)"/>
</clipPath>
</defs>
</svg>
