<svg width="16" height="16" viewBox="0 0 16 16" fill="none" xmlns="http://www.w3.org/2000/svg">
<g clip-path="url(#clip0_465_25)">
<path d="M15.599 7.78688C15.599 3.67232 12.2653 0.338623 8.15077 0.338623C4.03621 0.338623 0.702515 3.67232 0.702515 7.78688C0.702515 11.5044 3.42623 14.5858 6.98698 15.145V9.93997H5.09488V7.78688H6.98698V6.14586C6.98698 4.27929 8.09821 3.24825 9.8002 3.24825C10.6153 3.24825 11.4677 3.39361 11.4677 3.39361V5.22564H10.5282C9.60318 5.22564 9.31456 5.79988 9.31456 6.38883V7.78688H11.3803L11.0499 9.93997H9.31456V15.145C12.8753 14.5858 15.599 11.5044 15.599 7.78688Z" fill="white" fill-opacity="0.75"/>
</g>
<defs>
<clipPath id="clip0_465_25">
<rect width="15.377" height="15.377" fill="white" transform="translate(0.462219 0.0983887)"/>
</clipPath>
</defs>
</svg>
