<svg width="16" height="18" viewBox="0 0 16 18" fill="none" xmlns="http://www.w3.org/2000/svg">
<g clip-path="url(#clip0_465_27)">
<path d="M7.89186 4.8397C5.70887 4.8397 3.94806 6.60051 3.94806 8.7835C3.94806 10.9665 5.70887 12.7273 7.89186 12.7273C10.0749 12.7273 11.8357 10.9665 11.8357 8.7835C11.8357 6.60051 10.0749 4.8397 7.89186 4.8397ZM7.89186 11.3475C6.48115 11.3475 5.32787 10.1976 5.32787 8.7835C5.32787 7.36937 6.47772 6.21952 7.89186 6.21952C9.306 6.21952 10.4558 7.36937 10.4558 8.7835C10.4558 10.1976 9.30257 11.3475 7.89186 11.3475ZM12.9169 4.67838C12.9169 5.18981 12.505 5.59826 11.997 5.59826C11.4856 5.59826 11.0771 5.18637 11.0771 4.67838C11.0771 4.17039 11.489 3.75851 11.997 3.75851C12.505 3.75851 12.9169 4.17039 12.9169 4.67838ZM15.5289 5.61199C15.4705 4.37977 15.1891 3.28827 14.2864 2.38899C13.3871 1.4897 12.2956 1.20825 11.0634 1.14647C9.7934 1.07439 5.98689 1.07439 4.71691 1.14647C3.48812 1.20482 2.39662 1.48627 1.49391 2.38556C0.591192 3.28484 0.313169 4.37633 0.251387 5.60856C0.179307 6.87854 0.179307 10.685 0.251387 11.955C0.309737 13.1872 0.591192 14.2787 1.49391 15.178C2.39662 16.0773 3.48469 16.3588 4.71691 16.4205C5.98689 16.4926 9.7934 16.4926 11.0634 16.4205C12.2956 16.3622 13.3871 16.0807 14.2864 15.178C15.1857 14.2787 15.4671 13.1872 15.5289 11.955C15.601 10.685 15.601 6.88197 15.5289 5.61199ZM13.8882 13.3177C13.6205 13.9904 13.1022 14.5087 12.426 14.7799C11.4135 15.1815 9.01081 15.0888 7.89186 15.0888C6.7729 15.0888 4.36681 15.178 3.35769 14.7799C2.68494 14.5121 2.16665 13.9939 1.8955 13.3177C1.49391 12.3051 1.58658 9.90246 1.58658 8.7835C1.58658 7.66455 1.49734 5.25845 1.8955 4.24934C2.16322 3.57659 2.68151 3.0583 3.35769 2.78714C4.37024 2.38556 6.7729 2.47823 7.89186 2.47823C9.01081 2.47823 11.4169 2.38899 12.426 2.78714C13.0988 3.05487 13.6171 3.57316 13.8882 4.24934C14.2898 5.26189 14.1971 7.66455 14.1971 8.7835C14.1971 9.90246 14.2898 12.3086 13.8882 13.3177Z" fill="white" fill-opacity="0.75"/>
</g>
<defs>
<clipPath id="clip0_465_27">
<rect width="15.377" height="17.5738" fill="white" transform="translate(0.199951)"/>
</clipPath>
</defs>
</svg>
