<svg width="61" height="50" viewBox="0 0 61 50" fill="none" xmlns="http://www.w3.org/2000/svg">
<g clip-path="url(#clip0_3_5)">
<path d="M47.7712 35.5398C46.0423 35.8008 44.2809 35.7545 42.5681 35.403L41.976 35.2723L42.859 33.7205C44.2969 31.2521 45.5256 28.6675 46.532 25.994C47.5257 23.4352 48.2706 20.7865 48.7562 18.0849C49.0037 16.8111 49.1732 15.5234 49.2637 14.229C49.2452 14.2365 49.1196 14.7693 48.9867 15.4119C47.5508 22.2691 44.3505 29.3129 40.7121 33.6388C40.5104 33.9161 40.2696 34.1626 39.9973 34.3709C39.1134 33.3993 38.3235 32.3461 37.6382 31.2256C36.8924 29.9573 36.3249 28.5922 35.9518 27.1689C35.6999 26.0126 35.6934 24.8163 35.9328 23.6573C36.1722 22.4983 36.652 21.4024 37.3414 20.4404C38.5019 18.7036 39.9301 17.1615 41.573 15.8716C45.6148 12.4051 46.2547 11.7626 47.3402 10.0901C48.1254 8.84073 48.6628 7.45187 48.923 5.99934C48.954 5.74059 49.0081 5.48515 49.0849 5.23613C49.6248 5.93612 50.0954 6.68694 50.49 7.478C51.2279 8.87235 51.857 10.3215 52.3719 11.8127C55.3993 20.5606 55.3852 28.8063 52.3352 32.7306C51.8234 33.399 51.2038 33.9774 50.5018 34.442C49.6512 34.9416 48.7309 35.3116 47.7712 35.5398ZM30.8104 42.2727C25.8544 43.7488 21.3216 42.6228 17.1512 38.8784C15.9044 37.7952 14.812 36.5463 13.9043 35.1664C12.7952 33.4267 11.8506 31.5874 11.0827 29.6724C10.4231 27.9626 9.57562 26.3314 8.55579 24.8088C6.85839 22.4682 4.62881 21.0955 1.19434 20.2883C0.897609 20.2293 0.605806 20.1478 0.321462 20.0445C0.716199 19.6383 1.15678 19.2794 1.63434 18.9748C3.5218 17.7762 5.5811 16.8725 7.74115 16.295C13.7803 14.7621 20.1108 14.7959 26.1332 16.3934C29.1667 17.1663 32.0263 18.5068 34.5608 20.344L35.0881 20.7522L34.7863 21.4199C34.2568 22.4512 33.9468 23.581 33.876 24.7381C33.8052 25.8952 33.975 27.0545 34.3747 28.1426C34.9401 29.6493 35.751 31.0521 36.7745 32.2939C36.9643 32.5137 37.1397 32.7454 37.2997 32.9877C37.1464 32.895 37.0049 32.7842 36.8783 32.6575C32.2886 28.4528 26.7749 25.3856 20.7819 23.7033C19.8154 23.4467 18.4642 23.1427 18.4076 23.1656C18.3891 23.1731 19.0598 23.4985 19.8986 23.8876C23.6579 25.59 27.2011 27.7337 30.4535 30.2737C31.8436 31.4094 33.1608 32.6315 34.3974 33.9328C35.5312 35.1486 36.5052 36.5042 37.2956 37.9668L37.4977 38.4244L36.9654 38.8768C35.1353 40.3706 33.0499 41.5209 30.81 42.2718L30.8104 42.2727ZM37.4521 33.1968C37.4098 33.1643 37.3841 33.1165 37.3951 33.0904C37.4062 33.0644 37.4525 33.0856 37.4994 33.1378C37.5971 33.2461 37.5663 33.2845 37.453 33.1965L37.4521 33.1968Z" fill="#FF8900"/>
</g>
<defs>
<clipPath id="clip0_3_5">
<rect width="60.047" height="49.949" fill="white"/>
</clipPath>
</defs>
</svg>
