<svg width="22" height="18" viewBox="0 0 22 18" fill="none" xmlns="http://www.w3.org/2000/svg">
<g clip-path="url(#clip0_465_29)">
<path d="M20.0698 4.13789C20.2047 3.69844 20.0698 3.375 19.4208 3.375H17.2734C16.7265 3.375 16.475 3.65273 16.3401 3.96211C16.3401 3.96211 15.2463 6.53203 13.7005 8.19844C13.201 8.68008 12.9713 8.83476 12.6979 8.83476C12.563 8.83476 12.3552 8.68008 12.3552 8.24062V4.13789C12.3552 3.61055 12.2021 3.375 11.75 3.375H8.37394C8.03124 3.375 7.82707 3.62109 7.82707 3.84961C7.82707 4.34883 8.59999 4.46484 8.68019 5.87109V8.92266C8.68019 9.59062 8.55624 9.71367 8.2828 9.71367C7.55363 9.71367 5.78176 7.1332 4.73176 4.18008C4.5203 3.60703 4.31249 3.375 3.76197 3.375H1.61457C1.00207 3.375 0.878113 3.65273 0.878113 3.96211C0.878113 4.51055 1.60728 7.23516 4.27238 10.8352C6.0479 13.2926 8.54894 14.625 10.8239 14.625C12.1911 14.625 12.3588 14.3297 12.3588 13.8199C12.3588 11.4715 12.2349 11.25 12.9203 11.25C13.2375 11.25 13.7844 11.4047 15.0604 12.5895C16.5187 13.9957 16.7594 14.625 17.576 14.625H19.7234C20.3359 14.625 20.6458 14.3297 20.4672 13.7461C20.0588 12.5191 17.2989 9.99492 17.175 9.82617C16.8578 9.43242 16.9489 9.25664 17.175 8.90508C17.1786 8.90156 19.8 5.34375 20.0698 4.13789Z" fill="white" fill-opacity="0.75"/>
</g>
<defs>
<clipPath id="clip0_465_29">
<rect width="21" height="18" fill="white" transform="translate(0.199951)"/>
</clipPath>
</defs>
</svg>
