<svg width="39" height="39" viewBox="0 0 39 39" fill="none" xmlns="http://www.w3.org/2000/svg">
<g clip-path="url(#clip0_3_28)">
<path d="M19.5 0C15.7207 0 12.0548 1.08278 8.89825 3.1312C8.55342 3.35499 8.45538 3.81583 8.6791 4.16066C8.90289 4.50549 9.36373 4.60345 9.70856 4.37981C12.6232 2.48838 16.009 1.48855 19.5 1.48855C29.4315 1.48855 37.5115 9.56848 37.5115 19.5C37.5115 29.4315 29.4315 37.5115 19.5 37.5115C9.56848 37.5115 1.48855 29.4315 1.48855 19.5C1.48855 14.4356 3.63942 9.57602 7.38959 6.16756C7.69374 5.89106 7.71613 5.42039 7.43971 5.11616C7.1632 4.81193 6.69254 4.78946 6.38831 5.06604C2.3285 8.75603 0 14.017 0 19.5C0 30.2524 8.74758 39 19.5 39C30.2524 39 39 30.2524 39 19.5C39 8.74758 30.2524 0 19.5 0Z" fill="#F88500"/>
<path d="M32.7474 10.6548C32.519 10.3133 32.0566 10.2214 31.715 10.4501C31.3733 10.6785 31.2817 11.1409 31.5103 11.4825C33.0991 13.8575 33.9389 16.6298 33.9389 19.5C33.9389 27.4616 27.4616 33.9389 19.5 33.9389C11.5383 33.9389 5.06106 27.4616 5.06106 19.5C5.06106 11.5384 11.5383 5.06109 19.5 5.06109C23.298 5.06109 26.8843 6.52374 29.5982 9.17963C29.8921 9.46725 30.3634 9.46207 30.6507 9.16828C30.9383 8.87456 30.9331 8.40328 30.6393 8.11581C27.6455 5.18601 23.6896 3.57254 19.5 3.57254C10.7175 3.57254 3.57251 10.7175 3.57251 19.5C3.57251 28.2825 10.7175 35.4275 19.5 35.4275C28.2824 35.4275 35.4274 28.2825 35.4274 19.5C35.4274 16.3342 34.5007 13.2755 32.7474 10.6548Z" fill="#F88500"/>
<path d="M19.5 8.13744C17.0473 8.13744 14.7118 8.90662 12.7458 10.362C12.4154 10.6065 12.3459 11.0726 12.5904 11.4029C12.8352 11.7336 13.3012 11.803 13.6314 11.5583C15.3392 10.2942 17.3685 9.62599 19.5 9.62599C24.9445 9.62599 29.374 14.0555 29.374 19.5C29.374 24.0411 26.3015 27.9806 21.9023 29.0798C21.5035 29.1795 21.261 29.5835 21.3606 29.9824C21.4452 30.3207 21.7487 30.5464 22.0822 30.5464C22.1419 30.5464 22.2027 30.5392 22.2634 30.5241C27.3264 29.2587 30.8626 24.7255 30.8626 19.5C30.8626 13.2346 25.7654 8.13744 19.5 8.13744Z" fill="#F88500"/>
<path d="M13.2539 27.1478C10.9483 25.2624 9.626 22.4749 9.626 19.5C9.626 17.4413 10.253 15.4688 11.4393 13.7959C11.6771 13.4606 11.5979 12.996 11.2626 12.7583C10.9274 12.5204 10.4627 12.5996 10.225 12.9349C8.85925 14.8609 8.13745 17.1311 8.13745 19.5C8.13745 22.9232 9.65883 26.1308 12.3117 28.3001C12.4499 28.4132 12.6167 28.4682 12.7824 28.4682C12.998 28.4682 13.2118 28.3751 13.359 28.1952C13.6192 27.8768 13.5721 27.4079 13.2539 27.1478Z" fill="#F88500"/>
<path d="M25.9503 18.7557C25.5392 18.7557 25.2061 19.0888 25.2061 19.5C25.2061 22.6464 22.6464 25.2061 19.5 25.2061C16.3535 25.2061 13.7938 22.6464 13.7938 19.5C13.7938 16.3536 16.3535 13.7939 19.5 13.7939C19.9111 13.7939 20.2442 13.4608 20.2442 13.0496C20.2442 12.6385 19.9111 12.3053 19.5 12.3053C15.5328 12.3053 12.3053 15.5328 12.3053 19.5C12.3053 23.4672 15.5328 26.6947 19.5 26.6947C23.4671 26.6947 26.6946 23.4672 26.6946 19.5C26.6946 19.0888 26.3614 18.7557 25.9503 18.7557Z" fill="#F88500"/>
<path d="M19.5 16.4733C17.8311 16.4733 16.4733 17.8311 16.4733 19.5C16.4733 21.1688 17.8311 22.5267 19.5 22.5267C21.1688 22.5267 22.5266 21.1688 22.5266 19.5C22.5266 17.8311 21.1688 16.4733 19.5 16.4733ZM19.5 21.0381C18.6518 21.0381 17.9618 20.3482 17.9618 19.5C17.9618 18.6518 18.6518 17.9618 19.5 17.9618C20.3481 17.9618 21.0381 18.6518 21.0381 19.5C21.0381 20.3482 20.3481 21.0381 19.5 21.0381Z" fill="#F88500"/>
</g>
<defs>
<clipPath id="clip0_3_28">
<rect width="39" height="39" fill="white"/>
</clipPath>
</defs>
</svg>
